<?xml version="1.0" encoding="iso-8859-1"?>
<!-- Generator: Adobe Illustrator 19.0.0, SVG Export Plug-In . SVG Version: 6.00 Build 0)  -->
<svg version="1.1" id="Capa_1" xmlns="http://www.w3.org/2000/svg" xmlns:xlink="http://www.w3.org/1999/xlink" x="0px" y="0px"
	 viewBox="0 0 303.02 303.02" style="enable-background:new 0 0 303.02 303.02;" xml:space="preserve">
<g>
	<g>
		<g>
			<path d="M291.527,141.061H108.669c-5.771,0-10.449,4.678-10.449,10.449s4.678,10.449,10.449,10.449h182.857
				c5.771,0,10.449-4.678,10.449-10.449S297.297,141.061,291.527,141.061z"/>
			<circle cx="27.167" cy="151.51" r="26.122"/>
			<path d="M108.669,36.571h182.857c5.771,0,10.449-4.678,10.449-10.449s-4.678-10.449-10.449-10.449H108.669
				c-5.771,0-10.449,4.678-10.449,10.449S102.899,36.571,108.669,36.571z"/>
			<circle cx="27.167" cy="26.122" r="26.122"/>
			<path d="M291.527,266.449H108.669c-5.771,0-10.449,4.678-10.449,10.449s4.678,10.449,10.449,10.449h182.857
				c5.771,0,10.449-4.678,10.449-10.449S297.297,266.449,291.527,266.449z"/>
			<circle cx="27.167" cy="276.898" r="26.122"/>
		</g>
	</g>
</g>
<g>
</g>
<g>
</g>
<g>
</g>
<g>
</g>
<g>
</g>
<g>
</g>
<g>
</g>
<g>
</g>
<g>
</g>
<g>
</g>
<g>
</g>
<g>
</g>
<g>
</g>
<g>
</g>
<g>
</g>
</svg>
